# xmcd
#
# Track frame offsets:
#	150
#	22276
#	33185
#	41963
#	62709
#	74992
#	85670
#	107574
#	120066
#	135673
#	158281
#
# Disc length: 2189 seconds
#
# Revision: 0
# Processed by: cddbd v1.5.2PL0 Copyright (c) Steve Scherf et al.
# Submitted via: dBpowerAMP V4.0
#
DISCID=8d088b0b
DTITLE=David Gray - Lost Songs
DYEAR=1900
DGENRE=
TTITLE0=Flame Turns Blue
TTITLE1=Twilight
TTITLE2=Hold On
TTITLE3=As I'm Leaving
TTITLE4=Tidal Wave
TTITLE5=Falling Down The Mountainside
TTITLE6=January Rain
TTITLE7=Red Moon
TTITLE8=A Clean Pair Of Eys
TTITLE9=Wurlitzer
TTITLE10=Bonus Track
EXTD=
EXTT0=
EXTT1=
EXTT2=
EXTT3=
EXTT4=
EXTT5=
EXTT6=
EXTT7=
EXTT8=
EXTT9=
EXTT10=
PLAYORDER=
